<?xml version="1.0" encoding="UTF-8"?>
<svg width="32px" height="32px" viewBox="0 0 32 32" version="1.1" xmlns="http://www.w3.org/2000/svg" xmlns:xlink="http://www.w3.org/1999/xlink">
    <title>app-icon</title>
    <g id="app-icon" stroke="none" stroke-width="1" fill="none" fill-rule="evenodd">
        <g id="logo" transform="translate(3.000000, 4.000000)" fill="#FFFFFF" fill-rule="nonzero">
            <path d="M26,12.5188082 C26.000414,12.9690492 25.7935205,13.392873 25.4422649,13.6613321 L10.7838386,24.7368973 C10.3802364,25.0446442 9.84051286,25.0857732 9.3972606,24.8425599 C8.9491455,24.5947442 8.67065481,24.1125393 8.67331473,23.5890522 L8.67183729,16.6867782 L3.80884173,16.6867782 C3.37299677,16.6867782 3.01841104,16.2793312 3.01841104,15.7776241 C3.01841104,15.2759169 3.37299677,14.8684699 3.80884173,14.8684699 L8.67183729,14.8684699 L8.67183729,13.3686696 L0.789691973,13.3686696 C0.354585731,13.3679095 0,12.9604625 0,12.4587553 C0,11.9570482 0.353847011,11.5503613 0.790430693,11.5503613 L8.67109857,11.5503613 L8.67109857,10.096931 L3.80884173,10.096931 C3.37299677,10.096931 3.01841104,9.69024412 3.01841104,9.18777681 C3.01841104,8.68606967 3.37299677,8.27938283 3.80884173,8.27938283 L8.67035985,8.27938283 L8.66888241,1.41131614 C8.66888241,0.881482996 8.94811868,0.39725959 9.39282828,0.157808455 C9.83602594,-0.0861348012 10.3762805,-0.04466915 10.7794062,0.264231181 L25.4378326,11.3626012 C25.7865086,11.6248573 25.9918728,12.0535888 26,12.5188082 L26,12.5188082 Z M22.3728822,12.4960033 L11.3378788,4.14181924 L11.3629953,8.27862266 L14.0511983,8.27862266 C14.4870433,8.27862266 14.841629,8.68530951 14.841629,9.18701665 C14.841629,9.68872379 14.4870433,10.0961708 14.0511983,10.0961708 L11.3740761,10.0961708 L11.3829407,11.5496012 L16.6389354,11.5496012 C17.0747804,11.5496012 17.4293661,11.956288 17.4293661,12.4579952 C17.4293661,12.9597023 17.0747804,13.3671493 16.6389354,13.3671493 L11.3940215,13.3671493 L11.4028861,14.8677098 L14.0511983,14.8677098 C14.4870433,14.8677098 14.841629,15.2743966 14.841629,15.7768639 C14.841629,16.2785711 14.4870433,16.6852579 14.0511983,16.6852579 L11.4102733,16.6852579 L11.4102733,20.9520491 L22.3728822,12.4960033 Z" id="Shape"></path>
        </g>
    </g>
</svg>